<?xml version="1.0" encoding="UTF-8"?>
<svg width="16px" height="13px" viewBox="0 0 16 13" version="1.1" xmlns="http://www.w3.org/2000/svg" xmlns:xlink="http://www.w3.org/1999/xlink">
    <!-- Generator: Sketch 56.3 (81716) - https://sketch.com -->
    <title>icon-email</title>
    <desc>Created with Sketch.</desc>
    <g id="Page-1" stroke="none" stroke-width="1" fill="none" fill-rule="evenodd">
        <g id="Slices" transform="translate(-112.000000, -312.000000)" fill="#212221" fill-rule="nonzero">
            <g id="Group" transform="translate(112.000000, 312.000000)">
                <path d="M8.26311111,7.7675 L16,1.84042857 L16,1.67421429 C16,0.749357143 15.2826667,1.55431223e-14 14.3973333,1.55431223e-14 L1.76177778,1.55431223e-14 C0.789333333,1.55431223e-14 0,0.823642857 0,1.84042857 L7.73777778,7.7675 C7.87683951,7.87397619 8.06014815,7.88580688 8.20904252,7.80299206 L8.26311111,7.7675 Z" id="Path"></path>
                <path d="M8.50933333,9.34328571 C8.35644444,9.45564286 8.17777778,9.51135714 8,9.51135714 C7.82222222,9.51135714 7.64355556,9.45564286 7.49066667,9.34328571 L0,3.58707143 L0,11.1428571 C0,12.1689286 0.796444444,13 1.77777778,13 L14.2222222,13 C15.2044444,13 16,12.1689286 16,11.1428571 L16,3.58707143 L8.50933333,9.34328571 Z" id="Path"></path>
            </g>
        </g>
    </g>
</svg>