<?xml version="1.0" encoding="UTF-8"?>
<svg width="15px" height="14px" viewBox="0 0 15 14" version="1.1" xmlns="http://www.w3.org/2000/svg" xmlns:xlink="http://www.w3.org/1999/xlink">
    <!-- Generator: Sketch 56.3 (81716) - https://sketch.com -->
    <title>icon-social-instagram</title>
    <desc>Created with Sketch.</desc>
    <g id="Page-1" stroke="none" stroke-width="1" fill-rule="evenodd">
        <g id="Slices" transform="translate(-60.000000, -311.000000)">
            <g id="icon-social-instagram" transform="translate(60.000000, 310.999093)">
                <path d="M7.00045506,-2.57571742e-14 C5.09923232,-2.57571742e-14 4.86086608,0.0080548494 4.11419567,0.042136172 C3.36906336,0.0760960647 2.86019252,0.194449731 2.41486982,0.367527802 C1.9545708,0.546434507 1.56413426,0.785772821 1.17499298,1.17495562 C0.785770734,1.56413842 0.546433055,1.95453552 0.367526825,2.41487623 C0.194489691,2.86020012 0.0761363391,3.36903183 0.0421360601,4.11416612 C0.00809530452,4.86083852 1.12798659e-13,5.09924587 1.12798659e-13,7.00047366 C1.12798659e-13,8.90166098 0.00809530452,9.14006833 0.0421360601,9.88674073 C0.0761363391,10.631875 0.194489691,11.1407067 0.367526825,11.5860306 C0.546433055,12.0463309 0.785770734,12.4367684 1.17499298,12.8259512 C1.56413426,13.215134 1.9545708,13.4544723 2.41486982,13.633379 C2.86019252,13.8064571 3.36906336,13.9248108 4.11419567,13.9587707 C4.86086608,13.992852 5.09923232,14.0009068 7.00045506,14.0009068 C8.90163733,14.0009068 9.14004405,13.992852 9.88671446,13.9587707 C10.6318468,13.9248108 11.1407176,13.8064571 11.5860403,13.633379 C12.0463393,13.4544723 12.4367354,13.215134 12.8259172,12.8259512 C13.2151394,12.4367684 13.4544771,12.0463309 13.6333833,11.5860306 C13.8064204,11.1407067 13.9247738,10.631875 13.9587741,9.88674073 C13.9928148,9.14006833 14.0009101,8.90166098 14.0009101,7.00047366 C14.0009101,5.09924587 13.9928148,4.86083852 13.9587741,4.11416612 C13.9247738,3.36903183 13.8064204,2.86020012 13.6333833,2.41487623 C13.4544771,1.95453552 13.2151394,1.56413842 12.8259172,1.17495562 C12.4367354,0.785772821 12.0463393,0.546434507 11.5860403,0.367527802 C11.1407176,0.194449731 10.6318468,0.0760960647 9.88671446,0.042136172 C9.14004405,0.0080548494 8.90163733,-2.57571742e-14 7.00045506,-2.57571742e-14 M7.00045506,1.26133275 C8.86966088,1.26133275 9.09102698,1.26845664 9.8292378,1.30213319 C10.5117529,1.3333002 10.8824369,1.44732286 11.1291008,1.54317152 C11.4558678,1.67018719 11.6890531,1.8218936 11.934017,2.06685817 C12.1789809,2.31182273 12.3306869,2.5450086 12.4577022,2.87177643 C12.5535506,3.11844102 12.667573,3.489126 12.6987399,4.17164293 C12.7324164,4.90985571 12.7395403,5.13126288 12.7395403,7.00047366 C12.7395403,8.86964397 12.7324164,9.09109161 12.6987399,9.82922344 C12.667573,10.5117404 12.5535506,10.8824254 12.4577022,11.1291304 C12.3306869,11.4558578 12.1789809,11.6890841 11.934017,11.9340487 C11.6890531,12.1790132 11.4558678,12.3307197 11.1291008,12.4576948 C10.8824369,12.553584 10.5117529,12.6676066 9.8292378,12.6987332 C9.09114841,12.7324097 8.86978231,12.7395336 7.00045506,12.7395336 C5.13112782,12.7395336 4.90976172,12.7324097 4.17167233,12.6987332 C3.4891572,12.6676066 3.11847321,12.553584 2.87180928,12.4576948 C2.54504231,12.3307197 2.31185707,12.1790132 2.06689315,11.9340487 C1.82192924,11.6890841 1.67022323,11.4558578 1.5432079,11.1291304 C1.4473595,10.8824254 1.33329666,10.5117404 1.30217021,9.82922344 C1.26849374,9.09109161 1.2613294,8.86964397 1.2613294,7.00047366 C1.2613294,5.13126288 1.26849374,4.90985571 1.30217021,4.17168341 C1.33329666,3.489126 1.4473595,3.11844102 1.5432079,2.87177643 C1.67022323,2.5450086 1.82192924,2.31182273 2.06685267,2.06685817 C2.31185707,1.8218936 2.54504231,1.67018719 2.87180928,1.54317152 C3.11847321,1.44732286 3.4891572,1.3333002 4.17167233,1.30213319 C4.90984267,1.26845664 5.13124925,1.26133275 7.00045506,1.26133275" id="Fill-1"></path>
                <path d="M7.00045506,9.3339352 C5.71172306,9.3339352 4.66698354,8.2891929 4.66698354,7.00045747 C4.66698354,5.71172204 5.71172306,4.66697974 7.00045506,4.66697974 C8.28918707,4.66697974 9.33392659,5.71172204 9.33392659,7.00045747 C9.33392659,8.2891929 8.28918707,9.3339352 7.00045506,9.3339352 M7.00045506,3.40564699 C5.01508163,3.40564699 3.40561366,5.01507876 3.40561366,7.00045747 C3.40561366,8.9857957 5.01508163,10.5952679 7.00045506,10.5952679 C8.9858285,10.5952679 10.595256,8.9857957 10.595256,7.00045747 C10.595256,5.01507876 8.9858285,3.40564699 7.00045506,3.40564699" id="Fill-4"></path>
                <path d="M11.5773662,3.26358617 C11.5773662,3.7275293 11.2012583,4.10363815 10.737276,4.10363815 C10.2733341,4.10363815 9.89726669,3.7275293 9.89726669,3.26358617 C9.89726669,2.79964303 10.2733341,2.42353418 10.737276,2.42353418 C11.2012583,2.42353418 11.5773662,2.79964303 11.5773662,3.26358617" id="Fill-6"></path>
            </g>
        </g>
    </g>
</svg>