<?xml version="1.0" encoding="UTF-8"?>
<svg width="15px" height="14px" viewBox="0 0 15 14" version="1.1" xmlns="http://www.w3.org/2000/svg" xmlns:xlink="http://www.w3.org/1999/xlink">
    <!-- Generator: Sketch 56.3 (81716) - https://sketch.com -->
    <title>icon-social-linkedin</title>
    <desc>Created with Sketch.</desc>
    <g id="Page-1" stroke="none" stroke-width="1" fill-rule="evenodd">
        <g id="Slices" transform="translate(-83.000000, -311.000000)">
            <g id="icon-social-linkedin" transform="translate(83.000000, 311.000000)">
                <path d="M1.79774423,3.26429071 C2.91875799,3.26429071 3.61695834,2.53836478 3.61695834,1.63214535 C3.59606099,0.705520615 2.91875799,0 1.81921411,0 C0.719097693,0 0,0.705520615 0,1.63214535 C0,2.53836478 0.697914082,3.26429071 1.77684689,3.26429071 L1.79774423,3.26429071 Z" id="Path"></path>
                <polygon id="Path" points="0.190079963 14 3.4054085 14 3.4054085 4.55373864 0.190079963 4.55373864"></polygon>
                <path d="M5.18483177,14 L8.40016031,14 L8.40016031,8.72480783 C8.40016031,8.44248777 8.42105765,8.16016771 8.50607836,7.95863033 C8.73852554,7.39454927 9.26754327,6.81006289 10.1558236,6.81006289 C11.3194908,6.81006289 11.7846715,7.67686932 11.7846715,8.946471 L11.7846715,14 L15,14 L15,8.5836478 C15,5.68218029 13.4138056,4.33207547 11.298021,4.33207547 C9.56325502,4.33207547 8.80179011,5.278826 8.3789767,5.92368973 L8.40016031,5.92368973 L8.40016031,4.55373864 L5.18483177,4.55373864 C5.22691273,5.43983229 5.18483177,14 5.18483177,14" id="Fill-14"></path>
            </g>
        </g>
    </g>
</svg>