<?xml version="1.0" encoding="UTF-8"?>
<svg width="17px" height="14px" viewBox="0 0 17 14" version="1.1" xmlns="http://www.w3.org/2000/svg" xmlns:xlink="http://www.w3.org/1999/xlink">
    <!-- Generator: Sketch 56.3 (81716) - https://sketch.com -->
    <title>icon-social-twitter</title>
    <desc>Created with Sketch.</desc>
    <g id="Page-1" stroke="none" stroke-width="1" fill="none" fill-rule="evenodd">
        <g id="Slices" transform="translate(-108.000000, -311.000000)" fill="#212221">
            <path d="M125,312.657233 C124.37457,312.938377 123.702305,313.12839 122.99689,313.21375 C123.71684,312.776357 124.269935,312.083748 124.530375,311.258404 C123.85641,311.663496 123.110025,311.95756 122.31553,312.116048 C121.67939,311.429123 120.77295,311 119.76978,311 C117.84368,311 116.281975,312.582382 116.281975,314.534196 C116.281975,314.811205 116.31283,315.080979 116.37233,315.339642 C113.47366,315.192265 110.903685,313.785168 109.18354,311.646872 C108.88332,312.168849 108.71128,312.776013 108.71128,313.423746 C108.71128,314.649961 109.32702,315.731727 110.26287,316.365507 C109.69116,316.34716 109.153365,316.188155 108.683145,315.923463 C108.682805,315.938192 108.682805,315.952921 108.682805,315.967909 C108.682805,317.680268 109.885045,319.108727 111.48058,319.433455 C111.187925,319.514249 110.8798,319.557489 110.56173,319.557489 C110.33699,319.557489 110.118455,319.535266 109.90553,319.494007 C110.349315,320.89809 111.63732,321.919993 113.16358,321.948418 C111.969925,322.896417 110.466105,323.461461 108.83198,323.461461 C108.55046,323.461461 108.27285,323.444665 108,323.412019 C109.543515,324.4148 111.376795,325 113.346415,325 C119.76162,325 123.269825,319.61451 123.269825,314.944025 C123.269825,314.790791 123.26634,314.638419 123.259625,314.486821 C123.941155,313.988446 124.532415,313.366036 125,312.657233" id="Twitter"></path>
        </g>
    </g>
</svg>