<?xml version="1.0" encoding="UTF-8"?>
<svg width="1440px" height="972px" viewBox="0 0 1440 972" version="1.1" xmlns="http://www.w3.org/2000/svg" xmlns:xlink="http://www.w3.org/1999/xlink">
    <!-- Generator: Sketch 56.3 (81716) - https://sketch.com -->
    <title>thumbnail-fallback</title>
    <desc>Created with Sketch.</desc>
    <g id="Page-1" stroke="none" stroke-width="1" fill="none" fill-rule="evenodd">
        <g id="thumbnail-fallback" fill-rule="nonzero">
            <rect id="background" fill="#8A8986" x="0" y="0" width="1440" height="972"></rect>
            <g id="icon" opacity="0.4" transform="translate(568.000000, 372.000000)" fill="#FFFFFF">
                <path d="M270.218776,-2.84217094e-14 C288.8,-2.84217094e-14 304,15.1979323 304,33.776629 L304,194.223371 C304,212.802068 288.8,228 270.218776,228 L33.7812245,228 C15.2,228 0,212.802068 0,194.223371 L0,33.776629 C0,15.1979323 15.2,-2.84217094e-14 33.7812245,-2.84217094e-14 L270.218776,-2.84217094e-14 Z M291.343673,190.687526 L291.343673,37.2814583 C291.343673,20.2535709 283.743673,12.6546048 266.713469,12.6546048 L37.317551,12.6546048 C20.2873469,12.6546048 12.6873469,20.2535709 12.6873469,37.2814583 L12.6873469,190.687526 C12.6873469,207.715413 20.2873469,215.314379 37.317551,215.314379 L266.713469,215.314379 C283.743673,215.314379 291.343673,207.715413 291.343673,190.687526 Z" id="Combined-Shape"></path>
                <polygon id="Path" points="95.0155102 88.6442661 126.656327 113.984492 208.98449 44.322133 272.328163 101.329887 272.328163 196.332472 31.6718367 196.332472 31.6718367 139.324718"></polygon>
                <path d="M57.0155102,31.6675282 C43.0253061,31.6675282 31.6718367,43.0194531 31.6718367,57.007754 C31.6718367,70.996055 43.0253061,82.3479799 57.0155102,82.3479799 C71.0057143,82.3479799 82.3591837,70.996055 82.3591837,57.007754 C82.3591837,43.0194531 71.0057143,31.6675282 57.0155102,31.6675282 Z" id="Path"></path>
            </g>
        </g>
    </g>
</svg>